<svg width="105" height="109" viewBox="0 0 105 109" fill="none" xmlns="http://www.w3.org/2000/svg">
<circle cx="48.9072" cy="53.4507" r="40" fill="#E1BF05"/>
<path d="M69.6143 54.1578C70.0049 53.7673 70.0049 53.1341 69.6143 52.7436L63.2504 46.3796C62.8598 45.9891 62.2267 45.9891 61.8362 46.3796C61.4456 46.7701 61.4456 47.4033 61.8362 47.7938L67.493 53.4507L61.8362 59.1075C61.4456 59.4981 61.4456 60.1312 61.8362 60.5218C62.2267 60.9123 62.8598 60.9123 63.2504 60.5218L69.6143 54.1578ZM27.9072 54.4507H68.9072V52.4507H27.9072V54.4507Z" fill="black"/>
<path d="M37.2601 96.9168C44.8581 98.9527 52.857 98.9614 60.4594 96.942C68.0617 94.9227 75.002 90.9459 80.5882 85.408C86.1744 79.8701 90.2114 72.9647 92.2968 65.3802C94.3822 57.7957 94.443 49.797 92.4733 42.1816C90.5035 34.5663 86.572 27.6002 81.0707 21.978C75.5694 16.3558 68.6904 12.2739 61.1196 10.1391C53.5489 8.00431 45.5508 7.89132 37.9227 9.81136C30.2947 11.7314 23.3032 15.6174 17.6452 21.082" stroke="#E1BF05"/>
</svg>
