<svg width="86" height="91" viewBox="0 0 86 91" fill="none" xmlns="http://www.w3.org/2000/svg">
<circle cx="40" cy="45.3887" r="40" fill="#9BAFC6"/>
<path d="M60.7071 46.0958C61.0976 45.7053 61.0976 45.0721 60.7071 44.6816L54.3431 38.3176C53.9526 37.9271 53.3195 37.9271 52.9289 38.3176C52.5384 38.7081 52.5384 39.3413 52.9289 39.7318L58.5858 45.3887L52.9289 51.0455C52.5384 51.4361 52.5384 52.0692 52.9289 52.4597C53.3195 52.8503 53.9526 52.8503 54.3431 52.4597L60.7071 46.0958ZM19 46.3887H60V44.3887H19V46.3887Z" fill="black"/>
<path d="M39.9999 90.3883C51.2924 90.3883 62.1722 86.1426 70.4799 78.4938C78.7875 70.845 83.9157 60.3523 84.8467 49.0982C85.7777 37.8441 82.4434 26.6513 75.5055 17.7414C68.5677 8.83143 58.5335 2.85562 47.3944 0.999998" stroke="#9BAFC6"/>
</svg>
