<svg width="86" height="87" viewBox="0 0 86 87" fill="none" xmlns="http://www.w3.org/2000/svg">
<circle cx="40" cy="47" r="40" fill="#DAC18C"/>
<path d="M84.9992 46.5C84.9992 38.8846 83.0877 31.3909 79.44 24.7059C75.7923 18.0209 70.525 12.3584 64.1209 8.23744C57.7167 4.11645 50.3807 1.6688 42.7851 1.11882C35.1896 0.568842 27.5775 1.93414 20.6465 5.08956" stroke="#DAC18C"/>
<path d="M60.7071 47.7071C61.0976 47.3166 61.0976 46.6834 60.7071 46.2929L54.3431 39.9289C53.9526 39.5384 53.3195 39.5384 52.9289 39.9289C52.5384 40.3195 52.5384 40.9526 52.9289 41.3431L58.5858 47L52.9289 52.6569C52.5384 53.0474 52.5384 53.6805 52.9289 54.0711C53.3195 54.4616 53.9526 54.4616 54.3431 54.0711L60.7071 47.7071ZM19 48H60V46H19V48Z" fill="black"/>
</svg>
