<svg width="807" height="157" viewBox="0 0 807 157" fill="none" xmlns="http://www.w3.org/2000/svg">
<path d="M378.046 66.5016H406.087V79.6179C408.94 75.2191 412.351 71.5202 416.321 68.661C420.31 65.7618 425.784 64.2822 432.76 64.2822C438.407 64.2822 443.437 65.5219 447.793 67.9612C452.206 70.3805 456.061 74.6793 459.414 80.8776C462.363 76.7187 466.198 72.9398 470.842 69.5807C475.468 66.2217 481.5 64.5222 488.824 64.5222C492.986 64.5222 496.879 65.062 500.58 66.2217C504.222 67.3814 507.441 69.3408 510.139 72.1C512.837 74.8792 515.034 78.4582 516.634 82.877C518.214 87.3557 519.043 92.8142 519.043 99.2924V155.057H491.021V106.13C491.021 104.111 490.867 102.032 490.539 99.9522C490.211 97.8728 489.595 95.9933 488.65 94.3938C487.706 92.7742 486.415 91.4346 484.757 90.3549C483.1 89.2752 480.941 88.7553 478.32 88.7553C476.933 88.7553 475.294 89.0353 473.502 89.5751C471.652 90.115 469.917 91.0947 468.279 92.4743C466.641 93.8939 465.273 95.8733 464.194 98.4326C463.134 100.992 462.594 104.371 462.594 108.53V155.017H434.553V106.13C434.553 104.111 434.398 102.032 434.051 99.9322C433.743 97.8528 433.107 95.9933 432.163 94.3738C431.218 92.7542 429.908 91.4146 428.27 90.3349C426.651 89.2552 424.492 88.7354 421.852 88.7354C420.464 88.7354 418.846 89.0153 417.015 89.5551C415.184 90.095 413.449 91.0747 411.773 92.4543C410.134 93.8739 408.785 95.8534 407.687 98.4126C406.627 100.972 406.087 104.351 406.087 108.51V154.997L378.046 154.977V66.5016Z" fill="#090909"/>
<path d="M548.127 50.5656C545.795 50.5656 543.598 50.0658 541.593 49.106C539.589 48.1663 537.854 46.9266 536.351 45.3871C534.848 43.8475 533.634 42.048 532.709 39.9286C531.841 37.8692 531.379 35.6098 531.379 33.1705C531.379 30.7512 531.822 28.5118 532.709 26.3924C533.634 24.313 534.829 22.4735 536.351 20.9539C537.835 19.3944 539.57 18.1347 541.593 17.235C543.598 16.2952 545.795 15.7754 548.127 15.7754C550.459 15.7754 552.636 16.2753 554.641 17.195C556.664 18.1547 558.399 19.4144 559.921 20.9539C561.386 22.4735 562.6 24.313 563.506 26.3924C564.431 28.5118 564.874 30.7512 564.874 33.1705C564.874 35.6098 564.431 37.8692 563.506 39.9286C562.6 42.048 561.386 43.8475 559.921 45.3871C558.399 46.9466 556.664 48.1663 554.641 49.106C552.636 50.0458 550.459 50.5656 548.127 50.5656ZM533.884 66.5011H561.964V155.016H533.884V66.5011Z" fill="#090909"/>
<path d="M577.883 66.5016H605.924V79.6179C608.776 75.2192 612.168 71.5202 616.177 68.661C620.128 65.7618 625.621 64.2822 632.578 64.2822C638.263 64.2822 643.255 65.5219 647.649 67.9412C652.024 70.3805 655.897 74.6393 659.251 80.8576C662.2 76.6787 665.996 72.9198 670.679 69.5607C675.324 66.1817 681.356 64.5022 688.68 64.5022C692.823 64.5022 696.736 65.062 700.397 66.2017C704.078 67.3814 707.316 69.3208 710.014 72.06C712.712 74.8193 714.89 78.4183 716.49 82.837C718.128 87.3158 718.899 92.7942 718.899 99.2524V155.017H690.877V106.13C690.877 104.111 690.684 102.032 690.356 99.9322C690.067 97.8528 689.451 95.9933 688.487 94.3738C687.523 92.7742 686.252 91.4146 684.613 90.3349C682.937 89.2552 680.817 88.6954 678.118 88.6954C676.769 88.6954 675.131 89.0153 673.339 89.5351C671.489 90.075 669.754 91.0547 668.097 92.4543C666.478 93.8539 665.129 95.8534 664.03 98.4126C662.97 100.972 662.412 104.351 662.412 108.55V154.997H634.37V106.13C634.37 104.111 634.197 102.032 633.908 99.9322C633.58 97.8528 632.944 95.9933 632 94.3738C631.036 92.7742 629.726 91.4146 628.087 90.3349C626.449 89.2552 624.31 88.7354 621.67 88.7354C620.263 88.7354 618.644 89.0153 616.832 89.5551C615.001 90.095 613.267 91.0747 611.629 92.4743C609.991 93.8539 608.622 95.8733 607.543 98.4326C606.444 100.992 605.924 104.371 605.924 108.57V155.017H577.883V66.5016Z" fill="#090909"/>
<path d="M749.021 53.885C746.689 53.885 744.492 53.4051 742.527 52.4654C740.484 51.5057 738.749 50.286 737.246 48.7464C735.743 47.1869 734.548 45.3674 733.642 43.288C732.736 41.2086 732.293 38.9292 732.293 36.5299C732.293 34.0906 732.736 31.8512 733.642 29.7518C734.548 27.6724 735.743 25.8329 737.246 24.3133C738.749 22.7338 740.484 21.4941 742.527 20.5544C744.512 19.6146 746.689 19.1348 749.021 19.1348C751.353 19.1348 753.55 19.6146 755.555 20.5544C757.559 21.4941 759.332 22.7338 760.816 24.3133C762.3 25.8329 763.495 27.6524 764.42 29.7518C765.326 31.8712 765.769 34.1106 765.769 36.5299C765.769 38.9292 765.307 41.2086 764.42 43.288C763.495 45.3674 762.281 47.2069 760.816 48.7464C759.332 50.286 757.559 51.5257 755.555 52.4654C753.55 53.4051 751.353 53.885 749.021 53.885ZM734.798 69.8205H762.84L762.705 154.797L734.644 154.677L734.798 69.8205Z" fill="#090909"/>
<path d="M59.6095 154.597C55.0805 155.676 50.2624 156.236 45.1938 156.236C37.9088 156.236 31.4718 154.976 25.9021 152.477C20.3131 149.958 15.5914 146.579 11.7754 142.38C7.9595 138.141 5.01082 133.183 2.98722 127.644C1.02144 122.046 0 116.087 0 109.769C0 103.831 1.02144 97.9524 3.00649 92.274C5.0301 86.5356 7.99804 81.457 11.8911 76.9983C15.7841 72.5795 20.6793 68.9806 26.5574 66.2013C32.5125 63.4421 39.3542 62.0625 47.1403 62.0625C51.0333 62.0625 55.119 62.4824 59.3975 63.3021C63.6953 64.1019 67.3185 65.2816 70.3442 66.7412V92.7739C68.3785 91.2943 65.5454 89.9547 61.8451 88.835C58.1641 87.6953 54.6372 87.1355 51.2453 87.1355C45.0203 87.1355 39.6819 89.0549 35.2685 92.9738C30.8551 96.8327 28.6388 102.231 28.6388 109.049C28.6388 112.148 29.1591 115.088 30.1998 117.927C31.2406 120.706 32.7631 123.165 34.7096 125.245C36.6561 127.344 39.0459 128.984 41.8018 130.183C44.6156 131.423 47.7377 131.983 51.2646 131.983C55.0227 131.983 58.6074 131.423 61.98 130.183C65.3334 128.944 68.1279 127.364 70.3635 125.345V151.357C67.7425 152.457 64.1771 153.537 59.6095 154.597Z" fill="#090909"/>
<path d="M154.68 144.32C151.172 147.979 147.067 150.878 142.422 153.097C137.701 155.317 132.073 156.456 125.463 156.456C119.199 156.456 113.649 155.277 108.696 153.017C103.801 150.718 99.5798 147.559 96.1494 143.5C92.6803 139.461 90.0593 134.603 88.2477 128.944C86.3975 123.326 85.5303 117.088 85.5303 110.369C85.5303 103.351 86.4746 96.9532 88.4597 91.0348C90.3869 85.1965 93.1621 80.1179 96.8239 75.7791C100.466 71.4603 104.918 68.1013 110.141 65.6819C115.422 63.2426 121.358 62.043 127.987 62.043C133.962 62.043 139.339 63.2826 144.061 65.8019C148.782 68.2612 152.328 71.4003 154.68 75.1793V64.8822H182.143V153.397H154.68V144.32ZM135.003 133.803C138.298 133.803 141.208 133.143 143.771 131.863C146.315 130.604 148.493 128.904 150.247 126.725C152.001 124.605 153.35 122.186 154.294 119.407C155.161 116.648 155.663 113.748 155.663 110.649C155.663 107.43 155.142 104.431 154.063 101.612C153.003 98.7726 151.577 96.3133 149.727 94.1539C147.876 92.0145 145.641 90.275 142.962 88.9954C140.283 87.7357 137.277 87.0959 134.039 87.0959C128.122 87.0959 123.227 89.1354 119.373 93.2142C115.518 97.3131 113.591 102.792 113.591 109.61C113.591 112.869 114.073 115.928 115.056 118.887C116.038 121.786 117.426 124.405 119.257 126.585C121.107 128.824 123.343 130.564 125.983 131.823C128.604 133.143 131.611 133.803 135.003 133.803Z" fill="#090909"/>
<path d="M207.084 86.3157H195.578V64.8818H207.084V42.648C207.084 36.1698 207.488 30.3315 208.259 25.1529C209.03 19.9744 210.591 15.4956 212.962 11.7367C215.332 7.93777 218.666 5.03858 222.983 3.01915C227.3 0.999719 232.947 0 239.885 0C242.757 0 245.513 0.159955 248.23 0.419882C250.909 0.699803 253.337 1.01971 255.573 1.45959V25.6728C252.856 25.2729 250.196 25.073 247.594 25.073C245.378 25.073 243.663 25.2529 242.429 25.5728C241.215 25.8927 240.194 26.3926 239.423 27.0924C238.671 27.7522 237.977 28.492 237.399 29.3717C236.783 30.2515 236.378 31.4312 236.012 32.8708C235.723 34.3304 235.472 36.1898 235.337 38.4892C235.221 40.7286 235.164 43.6077 235.164 47.0668V64.8818H254.436V86.2958H235.164V153.397H207.103V86.3157H207.084Z" fill="#090909"/>
<path d="M347.732 136.201C342.779 142.959 337.016 148.078 330.386 151.477C323.757 154.896 315.508 156.616 305.641 156.616C299.936 156.616 294.366 155.636 288.989 153.676C283.593 151.757 278.871 148.818 274.766 144.999C270.681 141.18 267.404 136.321 264.918 130.443C262.451 124.605 261.218 117.686 261.218 109.769C261.218 102.851 262.278 96.5124 264.436 90.674C266.576 84.8357 269.621 79.7171 273.591 75.3783C277.561 71.0796 282.263 67.7405 287.717 65.3012C293.171 62.8619 299.204 61.6822 305.814 61.6822C312.328 61.6822 318.264 62.6819 323.641 64.8013C329.037 66.8807 333.663 69.8599 337.479 73.7588C341.333 77.6777 344.282 82.5163 346.44 88.2147C348.58 93.9331 349.62 100.511 349.62 107.929V111.248C349.62 112.668 349.582 114.247 349.466 116.007H287.891C288.141 121.665 290.165 126.344 293.923 130.023C297.7 133.742 302.557 135.621 308.532 135.621C317.108 135.621 324.161 131.703 329.77 123.885L347.732 136.201ZM315.392 10.0967L337.209 26.872L303.694 54.3842L287.91 43.2674L315.392 10.0967ZM322.196 99.0317C322.196 96.8723 321.829 94.7929 321.039 92.7735C320.249 90.754 319.17 88.9145 317.724 87.315C316.298 85.6954 314.602 84.3758 312.559 83.3561C310.555 82.3364 308.242 81.8365 305.641 81.8365C300.707 81.8365 296.698 83.4761 293.576 86.6952C290.454 89.9143 288.623 94.0131 288.122 99.0117H322.196V99.0317Z" fill="#090909"/>
<path d="M806.857 84.4766C806.857 88.5755 805.469 92.0745 802.675 94.9737C799.938 97.7529 796.643 99.1525 792.769 99.1525C788.895 99.1525 785.58 97.7729 782.863 94.9737C780.068 92.0745 778.681 88.5755 778.681 84.4766C778.681 80.3378 780.068 76.8388 782.863 73.9396C785.599 71.1603 788.895 69.7607 792.769 69.7607C796.643 69.7607 799.957 71.1404 802.675 73.9396C805.469 76.8188 806.857 80.3378 806.857 84.4766ZM796.893 73.2598C795.467 72.6599 794.099 72.38 792.769 72.38C791.439 72.38 790.071 72.6799 788.644 73.2598C787.218 73.8596 786.004 74.6394 785.002 75.6591C783.981 76.6988 783.133 77.9984 782.477 79.578C781.822 81.1575 781.514 82.7771 781.514 84.4166C781.514 86.0962 781.841 87.7357 782.477 89.3352C783.133 90.9348 783.981 92.2344 785.002 93.2341C786.004 94.2539 787.218 95.0536 788.644 95.6335C790.071 96.2333 791.439 96.5132 792.769 96.5132C794.099 96.5132 795.467 96.2133 796.893 95.6335C798.319 95.0536 799.533 94.2539 800.536 93.2341C801.557 92.2344 802.405 90.9348 803.06 89.3352C803.715 87.7557 804.043 86.1161 804.043 84.4166C804.043 82.7571 803.715 81.1375 803.06 79.578C802.405 77.9984 801.557 76.6988 800.536 75.6591C799.514 74.6394 798.319 73.8396 796.893 73.2598ZM786.544 76.1989H792.306C794.523 76.1989 796.161 76.7588 797.182 77.8385C798.03 78.7582 798.435 79.9179 798.435 81.2975C798.435 82.5571 798.049 83.6368 797.259 84.4966C796.662 85.1364 795.929 85.5563 795.062 85.7562L799.418 92.1544H794.021L790.938 86.756V92.1544H786.563V76.1989H786.544ZM790.938 79.578V83.2969H791.555C792.403 83.2969 793 83.177 793.386 82.917C793.906 82.5771 794.156 82.0573 794.156 81.3575C794.156 80.7577 793.964 80.3178 793.578 79.9979C793.212 79.7179 792.499 79.578 791.497 79.578H790.938Z" fill="#090909"/>
</svg>
